<svg width="190" height="194" viewBox="0 0 190 194" fill="none" xmlns="http://www.w3.org/2000/svg">
<rect width="190" height="194" fill="#C4C4C4"/>
<path d="M17.9854 85V50.1641H27.6274C30.3231 50.1641 32.7635 50.8021 34.9487 52.0781C37.134 53.3542 38.8486 55.1486 40.0928 57.4614C41.3369 59.7583 41.9749 62.3343 42.0068 65.1895V69.7114C42.0068 72.6144 41.3927 75.2303 40.1646 77.5591C38.9523 79.8879 37.2536 81.7062 35.0684 83.0142C32.8831 84.3221 30.4427 84.984 27.7471 85H17.9854ZM19.2773 51.4561V83.708H27.6274C30.0679 83.708 32.285 83.1178 34.2788 81.9375C36.2886 80.7412 37.8597 79.0824 38.9922 76.9609C40.1247 74.8236 40.6989 72.4549 40.7148 69.855V65.3809C40.7148 62.7809 40.1566 60.4202 39.04 58.2988C37.9395 56.1774 36.3923 54.5186 34.3984 53.3223C32.4206 52.11 30.2274 51.488 27.8188 51.4561H19.2773ZM66.7222 85V80.813C65.9565 82.2485 64.84 83.389 63.3726 84.2344C61.9051 85.0638 60.0469 85.4785 57.7979 85.4785C54.9746 85.4785 52.8532 84.6571 51.4336 83.0142C50.0299 81.3553 49.3122 78.9468 49.2803 75.7886V59.1123H50.5723V75.8364C50.6042 78.5799 51.2262 80.6615 52.4385 82.0811C53.6507 83.4847 55.4212 84.1865 57.75 84.1865C60.2223 84.1865 62.2321 83.6043 63.7793 82.4399C65.3265 81.2756 66.3075 79.5688 66.7222 77.3198V59.1123H68.0381V85H66.7222ZM92.1792 78.6597C92.1792 75.5174 89.4995 73.38 84.1401 72.2476C80.9181 71.5617 78.6771 70.6844 77.417 69.6157C76.1569 68.5311 75.5269 67.0477 75.5269 65.1655C75.5269 63.2674 76.3244 61.7043 77.9194 60.4761C79.5304 59.2479 81.62 58.6338 84.188 58.6338C86.9793 58.6338 89.2204 59.3037 90.9111 60.6436C92.6019 61.9674 93.4473 63.7619 93.4473 66.0269H92.1313C92.1313 64.2882 91.3976 62.8368 89.9302 61.6724C88.4627 60.508 86.5487 59.9258 84.188 59.9258C81.923 59.9258 80.1286 60.4202 78.8047 61.4092C77.4808 62.3981 76.8188 63.6343 76.8188 65.1177C76.8188 66.2821 77.0661 67.1992 77.5605 67.8691C78.055 68.5231 78.8605 69.1213 79.9771 69.6636C81.0936 70.1899 82.7205 70.7004 84.8579 71.1948C86.9953 71.6893 88.686 72.2715 89.9302 72.9414C91.1743 73.6113 92.0755 74.4089 92.6338 75.334C93.1921 76.2432 93.4712 77.3597 93.4712 78.6836C93.4712 80.7253 92.6338 82.3682 90.959 83.6123C89.2842 84.8564 87.091 85.4785 84.3794 85.4785C81.4764 85.4785 79.1317 84.8245 77.3452 83.5166C75.5747 82.1927 74.6895 80.494 74.6895 78.4204H75.9814C76.109 80.2388 76.9066 81.6584 78.374 82.6792C79.8574 83.6841 81.8592 84.1865 84.3794 84.1865C86.6922 84.1865 88.5664 83.6522 90.002 82.5835C91.4535 81.4989 92.1792 80.1909 92.1792 78.6597ZM103.52 52.126V59.1123H109.406V60.4282H103.52V78.8032C103.52 80.6375 103.815 81.9933 104.405 82.8706C105.011 83.7479 106.016 84.1865 107.42 84.1865C108.122 84.1865 108.975 84.1147 109.98 83.9712L110.195 85.1914C109.669 85.3828 108.768 85.4785 107.492 85.4785C105.61 85.4785 104.262 84.9601 103.448 83.9233C102.635 82.8706 102.22 81.2197 102.204 78.9707V60.4282H97.4189V59.1123H102.204V52.126H103.52ZM135.916 72.2954C135.916 76.3309 135.046 79.5369 133.308 81.9136C131.569 84.2902 129.2 85.4785 126.202 85.4785C124.256 85.4785 122.517 85.0798 120.986 84.2822C119.455 83.4688 118.25 82.3442 117.373 80.9087V85H116.081V48.25H117.373V63.8257C118.282 62.119 119.479 60.827 120.962 59.9497C122.461 59.0724 124.192 58.6338 126.154 58.6338C129.184 58.6338 131.569 59.7982 133.308 62.127C135.046 64.4398 135.916 67.6937 135.916 71.8887V72.2954ZM134.576 71.793C134.576 68.0765 133.834 65.1735 132.351 63.084C130.883 60.9785 128.826 59.9258 126.178 59.9258C124.008 59.9258 122.166 60.484 120.651 61.6006C119.152 62.7171 118.059 64.376 117.373 66.5771V78.4443C118.059 80.2786 119.152 81.6982 120.651 82.7031C122.166 83.6921 124.024 84.1865 126.226 84.1865C128.889 84.1865 130.947 83.1258 132.398 81.0044C133.85 78.883 134.576 75.8125 134.576 71.793ZM144.577 85H143.285V59.1123H144.577V85ZM142.615 51.0254C142.615 50.6585 142.742 50.3475 142.998 50.0923C143.253 49.8211 143.564 49.6855 143.931 49.6855C144.298 49.6855 144.609 49.8211 144.864 50.0923C145.135 50.3475 145.271 50.6585 145.271 51.0254C145.271 51.3923 145.135 51.7033 144.864 51.9585C144.609 52.2137 144.298 52.3413 143.931 52.3413C143.564 52.3413 143.253 52.2137 142.998 51.9585C142.742 51.7033 142.615 51.3923 142.615 51.0254ZM154.362 65.1416C155.208 63.1318 156.452 61.5448 158.095 60.3804C159.738 59.216 161.556 58.6338 163.55 58.6338C166.325 58.6338 168.383 59.4233 169.723 61.0024C171.078 62.5656 171.764 64.9342 171.78 68.1084V85H170.488V68.0605C170.472 65.2852 169.906 63.2355 168.79 61.9116C167.673 60.5718 165.903 59.9019 163.478 59.9019C161.245 59.9019 159.307 60.6994 157.664 62.2944C156.037 63.8735 154.937 65.9152 154.362 68.4194V85H153.07V59.1123H154.362V65.1416ZM87.4897 129.295C87.4897 133.331 86.6204 136.537 84.8818 138.914C83.1432 141.29 80.7746 142.479 77.7759 142.479C75.814 142.479 74.0674 142.08 72.5361 141.282C71.0049 140.485 69.8086 139.384 68.9473 137.98V151.953H67.6553V116.112H68.9473V120.73C69.8405 119.087 71.0448 117.827 72.5601 116.95C74.0754 116.072 75.798 115.634 77.728 115.634C80.7586 115.634 83.1432 116.798 84.8818 119.127C86.6204 121.44 87.4897 124.694 87.4897 128.889V129.295ZM86.1738 128.793C86.1738 125.076 85.4321 122.174 83.9487 120.084C82.4813 117.979 80.4157 116.926 77.752 116.926C75.5827 116.926 73.7404 117.492 72.2251 118.625C70.7098 119.741 69.6172 121.352 68.9473 123.458V135.564C69.6172 137.35 70.7098 138.738 72.2251 139.727C73.7563 140.7 75.6146 141.187 77.7998 141.187C80.4476 141.187 82.5052 140.134 83.9727 138.028C85.4401 135.923 86.1738 132.844 86.1738 128.793ZM96.1509 142H94.8589V116.112H96.1509V142ZM94.189 108.025C94.189 107.659 94.3166 107.347 94.5718 107.092C94.827 106.821 95.138 106.686 95.5049 106.686C95.8717 106.686 96.1828 106.821 96.438 107.092C96.7091 107.347 96.8447 107.659 96.8447 108.025C96.8447 108.392 96.7091 108.703 96.438 108.958C96.1828 109.214 95.8717 109.341 95.5049 109.341C95.138 109.341 94.827 109.214 94.5718 108.958C94.3166 108.703 94.189 108.392 94.189 108.025ZM113.425 141.187C115.77 141.187 117.7 140.564 119.215 139.32C120.747 138.076 121.584 136.354 121.728 134.152H123.02C122.892 136.657 121.927 138.674 120.125 140.206C118.322 141.721 116.089 142.479 113.425 142.479C110.187 142.479 107.611 141.306 105.697 138.961C103.799 136.617 102.85 133.435 102.85 129.415V128.554C102.85 124.63 103.799 121.496 105.697 119.151C107.611 116.806 110.171 115.634 113.377 115.634C116.121 115.634 118.386 116.455 120.172 118.098C121.959 119.741 122.908 121.926 123.02 124.654H121.728C121.616 122.325 120.794 120.459 119.263 119.055C117.748 117.636 115.786 116.926 113.377 116.926C110.49 116.926 108.225 117.971 106.583 120.06C104.956 122.134 104.142 125.021 104.142 128.721V129.559C104.142 133.179 104.964 136.027 106.606 138.1C108.265 140.158 110.538 141.187 113.425 141.187Z" fill="black"/>
</svg>
