<svg width="279" height="279" viewBox="0 0 279 279" fill="none" xmlns="http://www.w3.org/2000/svg">
<path d="M139.165 0C62.3459 0 0 62.3459 0 139.165C0 215.984 62.3459 278.33 139.165 278.33C215.984 278.33 278.33 215.984 278.33 139.165C278.33 62.3459 215.984 0 139.165 0ZM139.165 250.497C77.6541 250.497 27.833 200.676 27.833 139.165C27.833 113.419 36.6004 89.7614 51.3519 70.9741L207.356 226.978C187.916 242.262 163.893 250.547 139.165 250.497V250.497ZM226.978 207.356L70.9741 51.3519C90.4136 36.0683 114.437 27.7827 139.165 27.833C200.676 27.833 250.497 77.6541 250.497 139.165C250.497 164.911 241.73 188.569 226.978 207.356Z" fill="#EF5151"/>
</svg>
