<svg width="342" height="342" viewBox="0 0 342 342" fill="none" xmlns="http://www.w3.org/2000/svg">
<path d="M276.75 195.25C272.44 195.25 268.307 196.962 265.26 200.01C262.212 203.057 260.5 207.19 260.5 211.5V217.675L236.45 193.625C227.958 185.2 216.481 180.473 204.519 180.473C192.557 180.473 181.079 185.2 172.588 193.625L161.213 205L120.913 164.7C112.302 156.504 100.869 151.932 88.9813 151.932C77.0933 151.932 65.6606 156.504 57.05 164.7L33 188.75V97.75C33 93.4402 34.7121 89.307 37.7595 86.2595C40.807 83.2121 44.9402 81.5 49.25 81.5H163C167.31 81.5 171.443 79.788 174.491 76.7405C177.538 73.693 179.25 69.5598 179.25 65.25C179.25 60.9402 177.538 56.807 174.491 53.7595C171.443 50.7121 167.31 49 163 49H49.25C36.3207 49 23.9209 54.1362 14.7785 63.2786C5.63615 72.421 0.5 84.8207 0.5 97.75V292.75C0.5 305.679 5.63615 318.079 14.7785 327.221C23.9209 336.364 36.3207 341.5 49.25 341.5H244.25C257.179 341.5 269.579 336.364 278.722 327.221C287.864 318.079 293 305.679 293 292.75V211.5C293 207.19 291.288 203.057 288.241 200.01C285.193 196.962 281.06 195.25 276.75 195.25ZM49.25 309C44.9402 309 40.807 307.288 37.7595 304.24C34.7121 301.193 33 297.06 33 292.75V234.737L80.125 187.612C82.5123 185.337 85.6836 184.068 88.9813 184.068C92.279 184.068 95.4502 185.337 97.8375 187.612L149.35 239.125L219.225 309H49.25ZM260.5 292.75C260.477 295.861 259.451 298.881 257.575 301.363L184.288 227.75L195.663 216.375C196.828 215.186 198.218 214.241 199.753 213.596C201.287 212.952 202.935 212.619 204.6 212.619C206.265 212.619 207.913 212.952 209.447 213.596C210.982 214.241 212.373 215.186 213.538 216.375L260.5 263.662V292.75ZM337.038 53.7125L288.288 4.96252C286.742 3.48311 284.92 2.32343 282.925 1.55002C278.969 -0.0752685 274.531 -0.0752685 270.575 1.55002C268.58 2.32343 266.758 3.48311 265.213 4.96252L216.463 53.7125C213.403 56.7725 211.684 60.9226 211.684 65.25C211.684 69.5774 213.403 73.7276 216.463 76.7875C219.522 79.8474 223.673 81.5665 228 81.5665C232.327 81.5665 236.478 79.8474 239.538 76.7875L260.5 55.6625V146.5C260.5 150.81 262.212 154.943 265.26 157.99C268.307 161.038 272.44 162.75 276.75 162.75C281.06 162.75 285.193 161.038 288.241 157.99C291.288 154.943 293 150.81 293 146.5V55.6625L313.963 76.7875C315.473 78.3106 317.27 79.5195 319.251 80.3445C321.231 81.1695 323.355 81.5942 325.5 81.5942C327.645 81.5942 329.769 81.1695 331.749 80.3445C333.73 79.5195 335.527 78.3106 337.038 76.7875C338.561 75.2769 339.77 73.4796 340.595 71.4994C341.42 69.5192 341.844 67.3952 341.844 65.25C341.844 63.1048 341.42 60.9809 340.595 59.0006C339.77 57.0204 338.561 55.2232 337.038 53.7125Z" fill="black"/>
</svg>
